<?xml version="1.0" encoding="utf-8"?>
<!-- Generator: Adobe Illustrator 26.1.0, SVG Export Plug-In . SVG Version: 6.00 Build 0)  -->
<svg version="1.1" id="Слой_1" xmlns="http://www.w3.org/2000/svg" xmlns:xlink="http://www.w3.org/1999/xlink" x="0px" y="0px"
	 viewBox="0 0 1920 1080" style="enable-background:new 0 0 1920 1080;" xml:space="preserve">
<style type="text/css">
	.st0{fill:#146898;}
</style>
<g>
	<path class="st0" d="M1000.82,540.24c-1.15,2.19-2.31,4.37-3.46,6.55c-0.19,0.35-0.07,0.55,0.32,0.55c0.86,0,1.72,0,2.59,0
		c0.37,0,0.6-0.17,0.77-0.49c0.56-1.08,1.13-2.15,1.7-3.23c1.03-1.95,2.05-3.9,3.08-5.86c0.71-1.35,1.43-2.7,2.14-4.06
		c0-0.1,0-0.2,0-0.3c-0.06-0.11-0.13-0.23-0.19-0.34c-1.21-2.28-2.41-4.56-3.62-6.85c-1.04-1.97-2.08-3.94-3.11-5.92
		c-0.18-0.34-0.43-0.51-0.82-0.51c-0.84,0.01-1.68,0-2.53,0c-0.41,0-0.53,0.2-0.33,0.57c1.19,2.26,2.37,4.52,3.56,6.77
		c1.09,2.08,2.19,4.15,3.28,6.24c0.05,0.1,0.05,0.28,0,0.39C1003.08,535.94,1001.95,538.09,1000.82,540.24L1000.82,540.24z"/>
	<path class="st0" d="M962.71,533.57c0-3.03,0.01-6.06-0.01-9.1c0-0.5-0.04-1.03-0.19-1.5c-0.6-1.89-2.32-3.13-4.3-3.16
		c-1.15-0.01-2.29-0.02-3.44,0.01c-0.45,0.01-0.92,0.06-1.35,0.2c-1.95,0.64-3.17,2.32-3.17,4.36c-0.01,6.14,0,12.27,0,18.41
		c0,0.7,0.12,1.38,0.45,2c0.83,1.57,2.12,2.49,3.92,2.56c1.26,0.05,2.51,0.03,3.77,0c2.31-0.05,4.29-2.01,4.31-4.31
		C962.73,539.88,962.71,536.72,962.71,533.57C962.71,533.57,962.71,533.57,962.71,533.57L962.71,533.57z M957.53,543.79
		L957.53,543.79c-0.73-0.05-1.46-0.01-2.19-0.01c-0.79,0-1.29-0.5-1.29-1.29c0-3.89,0-7.79,0-11.68c0-2.01,0-4.01,0-6.02
		c0-0.94,0.47-1.4,1.39-1.4c0.71,0,1.42,0,2.13,0c0.87,0,1.36,0.5,1.36,1.38c0,2.94,0,5.88,0,8.82c0,2.93-0.02,5.86,0.01,8.79
		C958.96,543.25,958.27,543.84,957.53,543.79L957.53,543.79z"/>
	<path class="st0" d="M979.89,530.58c0,4.04-0.01,8.07,0.01,12.11c0,0.51,0.05,1.04,0.2,1.53c0.59,1.86,2.3,3.1,4.26,3.13
		c1.22,0.02,2.43,0.02,3.65,0c2.27-0.04,4.27-1.97,4.32-4.24c0.06-2.68,0.03-5.35,0.02-8.03c0-0.4-0.06-0.82-0.17-1.2
		c-0.59-1.94-2.33-3.23-4.36-3.25c-0.78-0.01-1.56-0.01-2.34,0c-0.63,0.01-1.16,0.24-1.55,0.76c-0.04,0.06-0.06,0.13-0.09,0.19
		c-0.04-0.02-0.07-0.05-0.11-0.07c-0.01-0.09-0.02-0.17-0.02-0.26c-0.01-2.19-0.03-4.38-0.04-6.57c0-0.75,0.52-1.29,1.27-1.3
		c0.78,0,1.56,0,2.34,0c0.75,0,1.26,0.51,1.28,1.25c0.01,0.46,0,0.91,0,1.37c0.01,0.39,0.13,0.52,0.52,0.52
		c0.92,0.01,1.85,0.01,2.77,0c0.38,0,0.51-0.13,0.51-0.52c0.01-0.56,0.02-1.12-0.01-1.67c-0.02-0.43-0.06-0.88-0.19-1.29
		c-0.62-1.96-2.33-3.21-4.38-3.22c-1.11-0.01-2.21-0.02-3.32,0.01c-0.47,0.01-0.96,0.05-1.41,0.2c-1.89,0.61-3.21,2.37-3.17,4.38
		C979.92,526.46,979.89,528.52,979.89,530.58L979.89,530.58z M983.66,535.46L983.66,535.46c0.01-0.72,0.54-1.27,1.27-1.27
		c0.79,0,1.58,0,2.37,0c0.73,0,1.25,0.51,1.25,1.24c0.01,1.19,0,2.37,0,3.56c0,1.14,0,2.27,0,3.41c0,0.91-0.47,1.39-1.38,1.39
		c-0.72,0-1.44,0-2.16,0c-0.85,0-1.36-0.5-1.36-1.36c0-1.89,0-3.79,0-5.69C983.66,536.31,983.66,535.88,983.66,535.46L983.66,535.46
		z"/>
	<path class="st0" d="M937.68,547.35c2.97,0,5.94,0,8.91,0c0.41,0,0.54-0.14,0.54-0.55c0-0.81,0-1.62,0-2.43
		c0-0.46-0.12-0.58-0.57-0.58c-0.73,0-1.46-0.01-2.19,0c-0.27,0.01-0.37-0.06-0.37-0.35c0.01-3.83,0.01-7.67,0.01-11.5
		c0-3.84,0-7.69,0-11.53c0-0.47-0.12-0.59-0.6-0.59c-1.83,0-3.65,0-5.48,0c-0.41,0-0.6,0.17-0.63,0.58
		c-0.05,0.82-0.09,1.64-0.13,2.46c-0.02,0.41,0.1,0.53,0.51,0.53c0.72,0,1.44,0.01,2.16,0c0.28-0.01,0.38,0.06,0.38,0.37
		c-0.01,6.55-0.01,13.1,0,19.65c0,0.32-0.1,0.39-0.4,0.39c-0.72-0.02-1.44-0.01-2.16-0.01c-0.39,0-0.52,0.12-0.52,0.5
		c0,0.85,0,1.7,0,2.56C937.17,547.22,937.3,547.35,937.68,547.35L937.68,547.35z"/>
	<path class="st0" d="M912.79,535.3c1.41,2.68,2.82,5.35,4.23,8.03c0.61,1.15,1.22,2.31,1.82,3.47c0.2,0.39,0.49,0.59,0.95,0.56
		c0.37-0.02,0.75-0.01,1.13-0.01c0.45,0,0.89,0,1.34,0c0.38-0.01,0.49-0.19,0.32-0.52c-0.89-1.69-1.78-3.38-2.66-5.08
		c-1.24-2.36-2.45-4.73-3.74-7.06c-0.43-0.77-0.5-1.36-0.03-2.17c1.1-1.91,2.08-3.89,3.11-5.84c1.1-2.1,2.21-4.19,3.3-6.29
		c0.21-0.41,0.1-0.58-0.36-0.58c-0.8,0-1.6,0.02-2.4-0.01c-0.47-0.01-0.75,0.19-0.96,0.59c-1.04,1.99-2.09,3.98-3.13,5.96
		c-1.21,2.3-2.44,4.6-3.63,6.91c-0.09,0.17-0.08,0.45,0,0.63C912.27,534.38,912.55,534.83,912.79,535.3L912.79,535.3z"/>
	<path class="st0" d="M934.69,519.59c0.09-0.39-0.03-0.56-0.44-0.57c-0.54-0.02-1.08-0.02-1.61,0c-0.38,0.01-0.57,0.18-0.66,0.55
		c-0.2,0.83-0.39,1.66-0.58,2.49c-0.26,1.15-0.52,2.29-0.78,3.44c-0.33,1.42-0.66,2.84-0.98,4.26c-0.26,1.15-0.52,2.31-0.79,3.47
		c-0.27,1.19-0.56,2.39-0.83,3.58c-0.28,1.21-0.55,2.43-0.83,3.64c-0.27,1.2-0.55,2.41-0.83,3.61c-0.27,1.16-0.53,2.33-0.81,3.49
		c-0.09,0.37,0.02,0.57,0.4,0.6c0.27,0.02,0.55,0,0.82,0c0,0,0,0,0,0.01c0.21,0,0.43,0,0.64,0c0.59,0,0.79-0.19,0.91-0.76
		c0.21-0.98,0.44-1.96,0.66-2.93c0.22-0.96,0.44-1.91,0.66-2.87c0.23-0.99,0.45-1.97,0.68-2.96c0.27-1.16,0.54-2.33,0.81-3.49
		c0.27-1.18,0.54-2.37,0.81-3.55c0.32-1.4,0.65-2.8,0.97-4.2c0.32-1.41,0.64-2.82,0.97-4.23
		C934.14,521.96,934.42,520.77,934.69,519.59L934.69,519.59z"/>
	<path class="st0" d="M966.53,529.66c0.42,0,0.83,0,1.25,0c0.7,0,0.84-0.11,0.99-0.8c0.31-1.38,0.62-2.76,0.94-4.15
		c0.05-0.23,0.11-0.46,0.17-0.69c0.03,0,0.05,0,0.08-0.01c0.05,0.19,0.11,0.38,0.15,0.57c0.35,1.53,0.7,3.06,1.06,4.59
		c0.07,0.29,0.27,0.46,0.56,0.47c0.57,0.01,1.14,0.02,1.7,0c0.3-0.01,0.45-0.23,0.37-0.5c-0.31-1.13-0.63-2.26-0.94-3.39
		c-0.32-1.18-0.64-2.36-0.96-3.54c-0.18-0.66-0.37-1.33-0.57-1.98c-0.08-0.27-0.29-0.42-0.57-0.42c-0.57-0.01-1.14-0.01-1.7,0
		c-0.28,0.01-0.48,0.18-0.56,0.43c-0.12,0.34-0.21,0.7-0.3,1.05c-0.27,0.99-0.53,1.97-0.8,2.96c-0.44,1.61-0.88,3.22-1.32,4.83
		C965.97,529.49,966.12,529.66,966.53,529.66L966.53,529.66z"/>
	<path class="st0" d="M930.16,561.55c0,0.85-0.72,1.54-1.6,1.54s-1.61-0.69-1.61-1.54c0-0.85,0.72-1.54,1.61-1.54
		S930.16,560.69,930.16,561.55L930.16,561.55z M929.39,561.55L929.39,561.55c0-0.46-0.37-0.84-0.83-0.84
		c-0.46,0-0.83,0.38-0.83,0.84c0,0.47,0.37,0.84,0.83,0.84C929.02,562.39,929.39,562.02,929.39,561.55L929.39,561.55z"/>
	<polygon class="st0" points="933.4,560.04 933.4,563.05 933.04,563.05 931.38,561.4 931.38,563.05 930.62,563.05 930.62,560.04 
		930.98,560.04 932.64,561.69 932.64,560.04 933.4,560.04 	"/>
	<polygon class="st0" points="936.34,562.41 936.34,563.05 933.96,563.05 933.96,560.04 936.26,560.04 936.26,560.68 934.69,560.68 
		934.69,561.28 935.99,561.28 935.99,561.9 934.69,561.9 934.69,562.41 936.34,562.41 	"/>
	<polygon class="st0" points="941.31,560.04 941.31,563.05 940.55,563.05 940.55,561.68 939.73,562.74 938.92,561.68 938.92,563.05 
		938.16,563.05 938.16,560.04 938.52,560.04 939.73,561.62 940.94,560.04 941.31,560.04 	"/>
	<polygon class="st0" points="942.64,563.05 941.88,563.05 941.88,560.04 942.64,560.04 942.64,563.05 	"/>
	<polygon class="st0" points="945.45,562.43 945.45,563.05 943.22,563.05 943.22,560.04 943.97,560.04 943.97,562.43 945.45,562.43 
			"/>
	<polygon class="st0" points="948.07,562.43 948.07,563.05 945.83,563.05 945.83,560.04 946.58,560.04 946.58,562.43 948.07,562.43 
			"/>
	<polygon class="st0" points="949.22,563.05 948.46,563.05 948.46,560.04 949.22,560.04 949.22,563.05 	"/>
	<path class="st0" d="M952.89,561.55c0,0.85-0.72,1.54-1.6,1.54c-0.89,0-1.61-0.69-1.61-1.54c0-0.85,0.72-1.54,1.61-1.54
		C952.17,560,952.89,560.69,952.89,561.55L952.89,561.55z M952.12,561.55L952.12,561.55c0-0.46-0.37-0.84-0.83-0.84
		s-0.83,0.38-0.83,0.84c0,0.47,0.37,0.84,0.83,0.84S952.12,562.02,952.12,561.55L952.12,561.55z"/>
	<polygon class="st0" points="956.13,560.04 956.13,563.05 955.77,563.05 954.1,561.4 954.1,563.05 953.35,563.05 953.35,560.04 
		953.71,560.04 955.37,561.69 955.37,560.04 956.13,560.04 	"/>
	<path class="st0" d="M960.77,561.84c0,0.7-0.47,1.25-1.37,1.25c-0.9,0-1.37-0.55-1.37-1.25v-1.8h0.74v1.6
		c0,0.55,0.21,0.76,0.63,0.76c0.42,0,0.64-0.21,0.64-0.76v-1.6h0.74V561.84L960.77,561.84z"/>
	<polygon class="st0" points="963.79,560.38 962.27,562.41 963.8,562.41 963.8,563.05 961.19,563.05 961.19,562.72 962.72,560.68 
		961.25,560.68 961.25,560.04 963.79,560.04 963.79,560.38 	"/>
	<path class="st0" d="M966.08,561.15c0.46,0.07,0.81,0.47,0.81,0.94c0,0.5-0.32,0.95-0.91,0.95h-1.72v-3.01h1.4
		c0.36,0,0.64,0.29,0.64,0.66C966.29,560.88,966.21,561.04,966.08,561.15L966.08,561.15z M964.98,561.08L964.98,561.08h0.39
		c0.17,0,0.25-0.09,0.25-0.2c0-0.11-0.09-0.2-0.26-0.2h-0.38V561.08L964.98,561.08z M965.55,562.41L965.55,562.41
		c0.4,0,0.54-0.15,0.54-0.39c0-0.19-0.15-0.39-0.54-0.39h-0.56v0.78H965.55L965.55,562.41z"/>
	<polygon class="st0" points="969.68,562.41 969.68,563.05 967.29,563.05 967.29,560.04 969.59,560.04 969.59,560.68 968.03,560.68 
		968.03,561.28 969.32,561.28 969.32,561.9 968.03,561.9 968.03,562.41 969.68,562.41 	"/>
	<polygon class="st0" points="972.93,563.05 971.94,563.05 971.1,562.11 970.85,562.38 970.85,563.05 970.12,563.05 970.12,560.04 
		970.85,560.04 970.85,561.31 971.98,560.04 972.89,560.04 971.59,561.54 972.93,563.05 	"/>
	<path class="st0" d="M976.73,562.03l0.58,0.49c-0.29,0.35-0.74,0.57-1.25,0.57c-0.88,0-1.6-0.69-1.6-1.54
		c0-0.85,0.72-1.54,1.6-1.54c0.5,0,0.95,0.22,1.25,0.58l-0.58,0.49c-0.15-0.22-0.39-0.36-0.66-0.36c-0.44,0-0.81,0.32-0.81,0.84
		c0,0.51,0.37,0.84,0.81,0.84C976.34,562.39,976.59,562.25,976.73,562.03L976.73,562.03z"/>
	<path class="st0" d="M980.73,561.55c0,0.85-0.72,1.54-1.6,1.54s-1.61-0.69-1.61-1.54c0-0.85,0.72-1.54,1.61-1.54
		S980.73,560.69,980.73,561.55L980.73,561.55z M979.96,561.55L979.96,561.55c0-0.46-0.37-0.84-0.83-0.84
		c-0.46,0-0.83,0.38-0.83,0.84c0,0.47,0.37,0.84,0.83,0.84C979.58,562.39,979.96,562.02,979.96,561.55L979.96,561.55z"/>
	<path class="st0" d="M982.56,563.05h-1.37v-3.01h1.28c0.84,0,1.51,0.67,1.51,1.51C983.98,562.35,983.35,563.05,982.56,563.05
		L982.56,563.05z M982.5,562.37L982.5,562.37c0.41,0,0.73-0.38,0.73-0.82c0-0.45-0.34-0.82-0.77-0.82h-0.54v1.64H982.5L982.5,562.37
		z"/>
	<polygon class="st0" points="986.82,562.41 986.82,563.05 984.43,563.05 984.43,560.04 986.73,560.04 986.73,560.68 985.17,560.68 
		985.17,561.28 986.46,561.28 986.46,561.9 985.17,561.9 985.17,562.41 986.82,562.41 	"/>
	<path class="st0" d="M988.54,562.35c-0.02,0-0.04,0-0.06,0h-0.46v0.69h-0.75v-3.01h1.38c0.91,0,1.22,0.54,1.22,1.12
		c0,0.5-0.19,0.86-0.58,1.04l0.67,0.84h-0.9L988.54,562.35L988.54,562.35z M988.02,561.74L988.02,561.74h0.43
		c0.45,0,0.63-0.25,0.63-0.52c0-0.27-0.14-0.54-0.55-0.54h-0.5V561.74L988.02,561.74z"/>
	<path class="st0" d="M992.65,562.13c0,0.6-0.47,0.96-1.19,0.96c-0.53,0-0.81-0.05-1.29-0.29l0.27-0.57
		c0.38,0.18,0.69,0.22,1.04,0.22c0.26,0,0.4-0.09,0.4-0.25c0-0.14-0.13-0.23-0.55-0.32c-0.63-0.15-1.13-0.31-1.13-0.93
		c0-0.55,0.44-0.94,1.14-0.94c0.49,0,0.88,0.12,1.19,0.25l-0.31,0.59c-0.27-0.11-0.63-0.2-0.9-0.2c-0.23,0-0.36,0.1-0.36,0.23
		c0,0.15,0.14,0.23,0.57,0.32C992.22,561.35,992.65,561.57,992.65,562.13L992.65,562.13z"/>
	<path class="st0" d="M920.46,555.25c0.46,0.07,0.81,0.46,0.81,0.94c0,0.5-0.32,0.95-0.91,0.95h-1.72v-3.01h1.4
		c0.36,0,0.64,0.29,0.64,0.66C920.68,554.97,920.6,555.14,920.46,555.25L920.46,555.25z M919.37,555.17L919.37,555.17h0.39
		c0.17,0,0.25-0.09,0.25-0.2c0-0.11-0.09-0.2-0.26-0.2h-0.38V555.17L919.37,555.17z M919.93,556.5L919.93,556.5
		c0.4,0,0.54-0.15,0.54-0.39c0-0.19-0.15-0.39-0.54-0.39h-0.56v0.78H919.93L919.93,556.5z"/>
	<polygon class="st0" points="922.45,557.14 921.69,557.14 921.69,554.13 922.45,554.13 922.45,557.14 	"/>
	<path class="st0" d="M924.3,556.45c-0.02,0-0.04,0-0.06,0h-0.46v0.69h-0.76v-3.01h1.38c0.91,0,1.22,0.54,1.22,1.12
		c0,0.5-0.19,0.86-0.58,1.05l0.67,0.84h-0.9L924.3,556.45L924.3,556.45z M923.78,555.84L923.78,555.84h0.43
		c0.45,0,0.63-0.25,0.63-0.52c0-0.27-0.14-0.54-0.55-0.54h-0.5V555.84L923.78,555.84z"/>
	<polygon class="st0" points="930.59,554.13 930.59,557.14 929.83,557.14 929.83,555.77 929.01,556.83 928.2,555.77 928.2,557.14 
		927.44,557.14 927.44,554.13 927.8,554.13 929.01,555.71 930.22,554.13 930.59,554.13 	"/>
	<polygon class="st0" points="931.92,557.14 931.16,557.14 931.16,554.13 931.92,554.13 931.92,557.14 	"/>
	<polygon class="st0" points="934.73,556.52 934.73,557.14 932.5,557.14 932.5,554.13 933.25,554.13 933.25,556.52 934.73,556.52 	
		"/>
	<polygon class="st0" points="937.35,556.52 937.35,557.14 935.11,557.14 935.11,554.13 935.87,554.13 935.87,556.52 937.35,556.52 
			"/>
	<polygon class="st0" points="938.5,557.14 937.74,557.14 937.74,554.13 938.5,554.13 938.5,557.14 	"/>
	<path class="st0" d="M942.17,555.64c0,0.85-0.72,1.54-1.6,1.54s-1.61-0.69-1.61-1.54c0-0.85,0.72-1.54,1.61-1.54
		S942.17,554.79,942.17,555.64L942.17,555.64z M941.4,555.64L941.4,555.64c0-0.46-0.37-0.84-0.83-0.84c-0.46,0-0.83,0.38-0.83,0.84
		c0,0.47,0.37,0.84,0.83,0.84C941.03,556.48,941.4,556.11,941.4,555.64L941.4,555.64z"/>
	<polygon class="st0" points="945.41,554.13 945.41,557.14 945.05,557.14 943.39,555.49 943.39,557.14 942.63,557.14 942.63,554.13 
		942.99,554.13 944.65,555.78 944.65,554.13 945.41,554.13 	"/>
	<path class="st0" d="M950.44,555.64c0,0.85-0.72,1.54-1.6,1.54c-0.89,0-1.61-0.69-1.61-1.54c0-0.85,0.72-1.54,1.61-1.54
		C949.72,554.1,950.44,554.79,950.44,555.64L950.44,555.64z M949.67,555.64L949.67,555.64c0-0.46-0.37-0.84-0.83-0.84
		s-0.83,0.38-0.83,0.84c0,0.47,0.37,0.84,0.83,0.84S949.67,556.11,949.67,555.64L949.67,555.64z"/>
	<path class="st0" d="M951.59,554.59c0,0.32-0.11,0.81-0.75,0.81l-0.1-0.29c0.27,0,0.37-0.09,0.39-0.21
		c-0.17-0.04-0.31-0.19-0.31-0.38c0-0.21,0.17-0.38,0.38-0.38C951.43,554.13,951.59,554.28,951.59,554.59L951.59,554.59z"/>
	<polygon class="st0" points="954.56,554.47 953.03,556.5 954.56,556.5 954.56,557.14 951.95,557.14 951.95,556.82 953.48,554.77 
		952.01,554.77 952.01,554.13 954.56,554.13 954.56,554.47 	"/>
	<path class="st0" d="M956.84,555.25c0.46,0.07,0.81,0.46,0.81,0.94c0,0.5-0.32,0.95-0.91,0.95h-1.72v-3.01h1.4
		c0.36,0,0.64,0.29,0.64,0.66C957.06,554.97,956.97,555.14,956.84,555.25L956.84,555.25z M955.75,555.17L955.75,555.17h0.39
		c0.17,0,0.25-0.09,0.25-0.2c0-0.11-0.09-0.2-0.26-0.2h-0.38V555.17L955.75,555.17z M956.31,556.5L956.31,556.5
		c0.4,0,0.54-0.15,0.54-0.39c0-0.19-0.15-0.39-0.54-0.39h-0.56v0.78H956.31L956.31,556.5z"/>
	<polygon class="st0" points="960.44,556.5 960.44,557.14 958.05,557.14 958.05,554.13 960.35,554.13 960.35,554.77 958.79,554.77 
		958.79,555.37 960.08,555.37 960.08,555.99 958.79,555.99 958.79,556.5 960.44,556.5 	"/>
	<polygon class="st0" points="963.69,557.14 962.7,557.14 961.86,556.21 961.62,556.48 961.62,557.14 960.88,557.14 960.88,554.13 
		961.62,554.13 961.62,555.41 962.74,554.13 963.65,554.13 962.35,555.63 963.69,557.14 	"/>
	<path class="st0" d="M966.72,557.14h-1.37v-3.01h1.28c0.84,0,1.51,0.67,1.51,1.51C968.14,556.44,967.51,557.14,966.72,557.14
		L966.72,557.14z M966.66,556.46L966.66,556.46c0.41,0,0.73-0.38,0.73-0.82c0-0.45-0.34-0.82-0.77-0.82h-0.54v1.64H966.66
		L966.66,556.46z"/>
	<path class="st0" d="M970.38,556.61h-1.22l-0.23,0.53h-0.79l1.46-3.01h0.36l1.46,3.01h-0.79L970.38,556.61L970.38,556.61z
		 M969.43,555.99L969.43,555.99h0.69l-0.35-0.75L969.43,555.99L969.43,555.99z"/>
	<path class="st0" d="M974.03,556.22c0,0.6-0.47,0.96-1.19,0.96c-0.53,0-0.81-0.05-1.29-0.29l0.27-0.57
		c0.38,0.18,0.69,0.22,1.04,0.22c0.26,0,0.4-0.09,0.4-0.25c0-0.14-0.13-0.23-0.55-0.32c-0.63-0.15-1.13-0.31-1.13-0.93
		c0-0.55,0.43-0.94,1.14-0.94c0.49,0,0.88,0.12,1.19,0.25l-0.31,0.59c-0.27-0.11-0.63-0.2-0.9-0.2c-0.23,0-0.36,0.1-0.36,0.23
		c0,0.15,0.15,0.23,0.57,0.32C973.6,555.44,974.03,555.66,974.03,556.22L974.03,556.22z"/>
	<polygon class="st0" points="976.8,554.77 975.89,554.77 975.89,557.14 975.13,557.14 975.13,554.77 974.21,554.77 974.21,554.13 
		976.8,554.13 976.8,554.77 	"/>
	<path class="st0" d="M979.9,555.93c0,0.7-0.47,1.25-1.37,1.25c-0.9,0-1.37-0.55-1.37-1.25v-1.8h0.74v1.6
		c0,0.55,0.21,0.76,0.63,0.76c0.42,0,0.64-0.21,0.64-0.76v-1.6h0.74V555.93L979.9,555.93z"/>
	<path class="st0" d="M981.7,556.45c-0.02,0-0.04,0-0.06,0h-0.46v0.69h-0.75v-3.01h1.38c0.91,0,1.22,0.54,1.22,1.12
		c0,0.5-0.19,0.86-0.58,1.05l0.67,0.84h-0.9L981.7,556.45L981.7,556.45z M981.18,555.84L981.18,555.84h0.43
		c0.45,0,0.63-0.25,0.63-0.52c0-0.27-0.14-0.54-0.55-0.54h-0.5V555.84L981.18,555.84z"/>
	<path class="st0" d="M985.62,556.12l0.58,0.49c-0.29,0.35-0.74,0.57-1.25,0.57c-0.88,0-1.6-0.69-1.6-1.54
		c0-0.85,0.72-1.54,1.6-1.54c0.5,0,0.95,0.22,1.25,0.58l-0.58,0.49c-0.14-0.22-0.39-0.36-0.66-0.36c-0.44,0-0.81,0.32-0.81,0.84
		c0,0.51,0.37,0.84,0.81,0.84C985.23,556.48,985.47,556.34,985.62,556.12L985.62,556.12z"/>
	<polygon class="st0" points="989.27,554.13 989.27,557.14 988.53,557.14 988.53,556.19 987.33,556.19 987.33,557.14 986.6,557.14 
		986.6,554.13 987.33,554.13 987.33,555.55 988.53,555.55 988.53,554.13 989.27,554.13 	"/>
	<polygon class="st0" points="990.6,557.14 989.84,557.14 989.84,554.13 990.6,554.13 990.6,557.14 	"/>
	<polygon class="st0" points="993.41,556.52 993.41,557.14 991.18,557.14 991.18,554.13 991.93,554.13 991.93,556.52 993.41,556.52 
			"/>
	<path class="st0" d="M995.8,556.61h-1.22l-0.23,0.53h-0.79l1.46-3.01h0.36l1.46,3.01h-0.79L995.8,556.61L995.8,556.61z
		 M994.84,555.99L994.84,555.99h0.69l-0.35-0.75L994.84,555.99L994.84,555.99z"/>
	<path class="st0" d="M998.42,556.45c-0.02,0-0.04,0-0.06,0h-0.46v0.69h-0.75v-3.01h1.38c0.91,0,1.22,0.54,1.22,1.12
		c0,0.5-0.19,0.86-0.58,1.05l0.67,0.84h-0.9L998.42,556.45L998.42,556.45z M997.9,555.84L997.9,555.84h0.43
		c0.45,0,0.63-0.25,0.63-0.52c0-0.27-0.14-0.54-0.55-0.54h-0.5V555.84L997.9,555.84z"/>
	<polygon class="st0" points="1000.96,557.14 1000.2,557.14 1000.2,554.13 1000.96,554.13 1000.96,557.14 	"/>
</g>
</svg>
